<?xml version="1.0" encoding="utf-8"?><!-- Uploaded to: SVG Repo, www.svgrepo.com, Generator: SVG Repo Mixer Tools -->
<svg width="800px" height="800px" viewBox="0 -0.5 25 25" fill="none" xmlns="http://www.w3.org/2000/svg">
<path fill-rule="evenodd" clip-rule="evenodd" d="M12.2984 16.3984L14.5984 14.0984L16.8984 11.7984C17.4167 11.263 17.4967 10.4407 17.0914 9.81544C16.6992 9.13641 15.9948 8.69706 15.2124 8.64344C14.1574 8.66444 12.9504 8.87644 12.1974 8.12344L9.45444 5.37944C8.96103 4.87943 8.15612 4.87272 7.65444 5.36444L5.86444 7.15144C5.37272 7.65312 5.37943 8.45803 5.87944 8.95144L8.62344 11.6984C9.37644 12.4514 9.16344 13.6584 9.14344 14.7134C9.19738 15.4954 9.63669 16.1994 10.3154 16.5914C10.9407 16.9967 11.763 16.9167 12.2984 16.3984Z" stroke="#000000" stroke-width="1.5" stroke-linecap="round" stroke-linejoin="round"/>
<path d="M14.5984 14.0984L19.4984 18.9984" stroke="#000000" stroke-width="1.5" stroke-linecap="round"/>
</svg>