<svg width="2000" height="1400" xmlns="http://www.w3.org/2000/svg"><defs><linearGradient id="a" gradientTransform="rotate(90)"><stop offset="5%" stop-color="#8c160e"/><stop offset="95%" stop-color="#a8504a"/></linearGradient><linearGradient id="b" gradientTransform="rotate(90)"><stop offset="5%" stop-color="#982b1c"/><stop offset="95%" stop-color="#b16054"/></linearGradient><linearGradient id="c" gradientTransform="rotate(90)"><stop offset="5%" stop-color="#b98069"/><stop offset="95%" stop-color="#ca9f8e"/></linearGradient><linearGradient id="d" gradientTransform="rotate(90)"><stop offset="5%" stop-color="#dad4b5"/><stop offset="95%" stop-color="#e3dec7"/></linearGradient><linearGradient id="e" gradientTransform="rotate(90)"><stop offset="5%" stop-color="#dfcdaa"/><stop offset="95%" stop-color="#e7d9bf"/></linearGradient><linearGradient id="f" gradientTransform="rotate(90)"><stop offset="5%" stop-color="#e4c59e"/><stop offset="95%" stop-color="#ead3b6"/></linearGradient><linearGradient id="g" gradientTransform="rotate(90)"><stop offset="5%" stop-color="#ccae88"/><stop offset="95%" stop-color="#d8c2a5"/></linearGradient><linearGradient id="h" gradientTransform="rotate(90)"><stop offset="5%" stop-color="#b49671"/><stop offset="95%" stop-color="#c6b094"/></linearGradient></defs><path fill="maroon" d="M0 0h2000v1400H0z"/><path d="M0 155c101.168 1.991 202.336 3.982 310 7 107.664 3.018 221.823 7.063 340 6 118.177-1.063 240.374-7.232 360-8 119.626-.768 236.683 3.866 341-1 104.317-4.866 195.893-19.233 315-16 119.107 3.233 265.745 24.067 326 29 60.255 4.933 34.128-6.033 48-17l-40 1245H0Z" fill="url(#a)"/><path d="M0 311c96.097 5.794 192.194 11.588 309 12 116.806.412 254.32-4.557 378-11s233.525-14.359 333-16 188.581 2.993 290 8c101.419 5.007 215.151 10.386 348 13 132.849 2.614 284.814 2.461 345 1 60.186-1.461 28.593-4.23 37-7l-40 1089H0Z" fill="url(#b)"/><path d="M0 466c107.813-9.683 215.627-19.365 325-15 109.373 4.365 220.307 22.778 329 23 108.693.222 215.147-17.747 325-18 109.853-.253 223.105 17.21 337 15 113.895-2.21 228.433-24.095 358-24 129.567.095 274.162 22.17 331 29 56.838 6.83 25.919-1.585 35-10l-40 934H0Z" fill="url(#c)"/><path d="M0 622c104.41-6.33 208.82-12.658 314-13 105.18-.342 211.132 5.304 328 13s244.652 17.443 363 16c118.348-1.443 227.258-14.078 330-13 102.742 1.078 199.315 15.867 319 19 119.685 3.133 262.481-5.39 324-11 61.519-5.61 41.76-8.305 62-11l-40 778H0Z" fill="url(#d)"/><path d="M0 777c104.162 9.432 208.323 18.864 317 19 108.677.136 221.868-9.023 335-20s226.204-23.773 339-18c112.796 5.773 225.317 30.114 331 35 105.683 4.886 204.53-9.685 329-18s274.563-10.376 337-9c62.437 1.376 37.219 6.188 52 11l-40 623H0Z" fill="url(#e)"/><path d="M0 933c107.766 9.116 215.532 18.233 325 17 109.468-1.233 220.638-12.815 333-20 112.362-7.185 225.915-9.972 347-2 121.085 7.972 249.703 26.704 353 28 103.297 1.296 181.272-14.843 306-22 124.728-7.157 296.208-5.33 360-4 63.792 1.33 19.896 2.165 16 3l-40 467H0Z" fill="url(#f)"/><path d="M0 1088c114.908-10.936 229.816-21.872 335-22 105.184-.128 200.645 10.55 309 13 108.355 2.45 229.603-3.33 355-6 125.397-2.67 254.941-2.231 356 2s173.631 12.255 296 14c122.369 1.745 294.534-2.787 361-4 66.466-1.213 27.233.894 28 3l-40 312H0Z" fill="url(#g)"/><path d="M0 1244c115.733-13.95 231.466-27.901 343-22 111.534 5.901 218.87 31.654 333 33s235.057-21.714 341-23c105.943-1.286 196.902 19.202 302 31 105.098 11.798 224.334 14.907 351 3s260.762-38.83 317-45c56.238-6.17 34.62 8.415 53 23l-40 156H0Z" fill="url(#h)"/></svg>